<svg width="31" height="33" viewBox="0 0 31 33" fill="none" xmlns="http://www.w3.org/2000/svg">
<path fill-rule="evenodd" clip-rule="evenodd" d="M27.5 2.3125H22C22 1.04062 20.7625 0 19.25 0H11C9.4875 0 8.25 1.04062 8.25 2.3125H2.75C1.2375 2.3125 0 3.35312 0 4.625V6.9375C0 8.20938 1.2375 9.25 2.75 9.25V30.0625C2.75 31.3344 3.9875 32.375 5.5 32.375H24.75C26.2625 32.375 27.5 31.3344 27.5 30.0625V9.25C29.0125 9.25 30.25 8.20938 30.25 6.9375V4.625C30.25 3.35312 29.0125 2.3125 27.5 2.3125ZM24.75 30.0625H5.5V9.25H8.25V27.75H11V9.25H13.75V27.75H16.5V9.25H19.25V27.75H22V9.25H24.75V30.0625ZM27.5 6.9375H2.75V4.625H27.5V6.9375Z" fill="white"/>
</svg>
