<svg width="29" height="29" viewBox="0 0 29 29" fill="none" xmlns="http://www.w3.org/2000/svg">
<g clip-path="url(#clip0)">
<path d="M27.9396 8.75261L26.6579 10.0349L18.967 2.34514L20.2487 1.06273C21.6645 -0.353266 23.9605 -0.353266 25.3764 1.06273L27.9396 3.62654C29.3535 5.04176 29.3535 7.33674 27.9396 8.75261ZM9.99499 24.1312C9.64105 24.4851 9.64105 25.0583 9.99499 25.4123C10.3491 25.7683 10.9226 25.7683 11.2766 25.4123L25.3764 11.3164L24.0933 10.034L9.99499 24.1312ZM3.58601 17.7237C3.23189 18.078 3.23189 18.6509 3.58601 19.0051C3.93995 19.3591 4.51347 19.3591 4.86759 19.0051L18.967 4.90812L17.6858 3.62654L3.58601 17.7237ZM20.247 6.18874L6.14887 20.2866C5.44093 20.9931 5.44273 22.1418 6.14887 22.8497C6.85711 23.5577 8.00391 23.561 8.71371 22.8478L22.8119 8.75261L20.247 6.18874ZM8.71006 26.6906C8.27657 26.2566 8.06763 25.7066 7.98987 25.1398C7.80561 25.1683 7.62003 25.1947 7.43045 25.1947C6.46211 25.1947 5.55264 24.8162 4.86759 24.1312C4.18254 23.4444 3.80553 22.5362 3.80553 21.568C3.80553 21.3914 3.83201 21.2193 3.85687 21.0478C3.27098 20.968 2.72943 20.7114 2.30461 20.2866C2.26385 20.2461 2.2498 20.1912 2.21269 20.1468L0 29.0003L8.83043 26.7897C8.79152 26.7543 8.74747 26.7277 8.71006 26.6906Z" fill="white"/>
</g>
<defs>
<clipPath id="clip0">
<rect width="29" height="29" fill="white"/>
</clipPath>
</defs>
</svg>
