<svg width="42" height="38" viewBox="0 0 42 38" fill="none" xmlns="http://www.w3.org/2000/svg">
<g filter="url(#filter0_dd)">
<g clip-path="url(#clip0)">
<path d="M16.5651 28.6563C16.323 29.5795 15.8008 29.9981 14.9127 29.9981C12.0227 30.0022 9.13406 29.9981 6.24406 29.9995C5.64158 29.9995 5.11254 29.7963 4.63654 29.4404C4.2435 29.1486 4.08166 28.7422 4.07758 28.254C4.0531 25.5745 4.00686 22.8949 4.00006 20.2154C3.99598 18.6431 4.04494 17.0695 4.08302 15.4958C4.11294 14.2399 5.16694 13.2186 6.40862 13.2199C9.49038 13.2227 12.5735 13.2213 15.6553 13.2349C15.9218 13.2349 16.1041 13.1599 16.2496 12.9431C17.0166 11.8004 17.7864 10.6618 18.5534 9.52039C18.839 9.09493 19.0865 8.63811 19.4116 8.24811C20.3133 7.16675 20.418 5.93811 20.2153 4.60857C20.0848 3.7563 20.0236 2.89175 19.9746 2.02993C19.9447 1.52539 20.1868 1.12039 20.5798 0.790387C21.8201 -0.254159 23.5745 -0.269159 25.0107 0.790387C26.6332 1.98766 27.4465 3.66084 27.7225 5.62039C27.9633 7.33039 27.7198 9.0063 27.2833 10.6604C27.2547 10.7708 27.2261 10.8813 27.1989 10.9918C27.1949 11.0136 27.1989 11.0367 27.1989 11.1036C27.3186 11.1036 27.4369 11.1036 27.5553 11.1036C30.0033 11.1022 32.4513 11.1022 34.8979 11.1008C36.4524 11.0995 37.7104 12.0827 37.9579 13.5281C38.1347 14.5508 37.7444 15.4086 37.0766 16.1504C36.9148 16.3304 36.8808 16.4695 36.9393 16.7136C37.2507 18.0104 36.8971 19.1722 36.1396 20.2236C35.9709 20.4568 35.8975 20.6477 35.9342 20.9558C36.092 22.2772 35.7656 23.4827 34.9659 24.5572C34.8653 24.6922 34.7945 24.9104 34.8204 25.074C35.193 27.4099 33.5597 28.854 31.6652 29.019C30.4385 29.1268 29.1981 29.0818 27.9633 29.0845C24.7455 29.0913 21.5277 29.0818 18.31 29.0899C17.698 29.0913 17.1173 29.0136 16.5651 28.6563ZM34.8408 20.9477C34.6844 20.9477 34.5511 20.9477 34.4178 20.9477C32.7178 20.949 31.0178 20.9504 29.3178 20.949C29.1138 20.949 28.9057 20.964 28.7072 20.9272C28.4202 20.8727 28.2461 20.6845 28.2625 20.3736C28.2788 20.0681 28.4529 19.8949 28.7534 19.8608C28.8772 19.8458 29.0023 19.8499 29.1274 19.8499C31.0083 19.8513 32.8892 19.854 34.7714 19.8472C34.8938 19.8472 35.0638 19.8131 35.1318 19.7299C35.7669 18.9458 36.0974 18.0677 35.9029 17.0354C35.8513 16.7613 35.7248 16.674 35.4446 16.6768C33.6535 16.689 31.8624 16.6836 30.0713 16.6822C29.5001 16.6822 29.2213 16.4954 29.2321 16.1204C29.243 15.759 29.5069 15.5886 30.0672 15.5886C31.9712 15.5858 33.8752 15.5872 35.7792 15.5818C35.9111 15.5818 36.0689 15.5804 36.1695 15.5136C36.9488 14.9872 37.1365 13.6795 36.5435 12.9458C36.1029 12.4018 35.5181 12.1945 34.8326 12.1958C32.2146 12.2027 29.5966 12.1999 26.9786 12.2013C25.9287 12.2013 25.8104 12.054 26.0688 11.0408C26.4618 9.50402 26.8181 7.96175 26.7066 6.35539C26.6019 4.85811 26.1531 3.49311 25.1372 2.36539C24.4368 1.58811 23.6072 1.03857 22.5015 1.10811C21.4883 1.17357 20.9729 1.73402 21.0572 2.73084C21.1279 3.55857 21.2517 4.38221 21.3605 5.20584C21.5182 6.41266 21.2598 7.51175 20.5513 8.50584C20.2153 8.97766 19.8917 9.46039 19.5775 9.94857C18.6568 11.3845 17.7986 12.864 16.6576 14.1445C16.5773 14.2331 16.5406 14.3899 16.5406 14.5154C16.5338 18.6786 16.5338 22.8418 16.5379 27.0049C16.5379 27.1113 16.5529 27.2545 16.6195 27.3199C16.9921 27.6799 17.4083 27.9854 17.955 27.9854C22.3301 27.9895 26.7039 27.9908 31.079 27.9854C31.7373 27.984 32.3588 27.8218 32.9096 27.4427C33.6685 26.919 34.0017 25.8649 33.6494 25.0808C32.2201 25.0808 30.7812 25.0822 29.3423 25.0808C28.7765 25.0808 28.2094 25.089 27.6423 25.074C27.3336 25.0645 27.1146 24.8381 27.1187 24.5545C27.1214 24.2531 27.2846 24.0649 27.5797 24.0077C27.6885 23.9858 27.8041 23.9858 27.917 23.9858C29.8441 23.9845 31.7699 23.9872 33.697 23.979C33.8398 23.9777 34.0411 23.9395 34.1159 23.8413C34.7592 22.9986 34.9836 22.0399 34.8408 20.9477ZM15.4241 14.3231C15.2568 14.3231 15.1126 14.3231 14.9685 14.3231C12.1356 14.3204 9.30406 14.3177 6.47118 14.3149C5.74902 14.3149 5.17102 14.8618 5.16966 15.5872C5.1615 19.7245 5.16014 23.8631 5.1615 28.0004C5.16286 28.5254 5.25262 28.644 5.7531 28.8118C5.92038 28.869 6.1067 28.8936 6.28486 28.8977C6.83974 28.9086 7.39462 28.9018 7.9495 28.9031C10.2724 28.9031 12.5939 28.9045 14.9168 28.9031C15.3343 28.9031 15.4417 28.7927 15.4431 28.3781C15.4445 27.9336 15.4431 27.489 15.4431 27.0445C15.4431 22.9413 15.4431 18.8368 15.4431 14.7322C15.4431 14.6095 15.4322 14.4868 15.4241 14.3231Z" fill="white"/>
</g>
</g>
<defs>
<filter id="filter0_dd" x="0" y="0" width="42" height="38" filterUnits="userSpaceOnUse" color-interpolation-filters="sRGB">
<feFlood flood-opacity="0" result="BackgroundImageFix"/>
<feColorMatrix in="SourceAlpha" type="matrix" values="0 0 0 0 0 0 0 0 0 0 0 0 0 0 0 0 0 0 127 0"/>
<feOffset dy="4"/>
<feGaussianBlur stdDeviation="2"/>
<feColorMatrix type="matrix" values="0 0 0 0 0 0 0 0 0 0 0 0 0 0 0 0 0 0 0.25 0"/>
<feBlend mode="normal" in2="BackgroundImageFix" result="effect1_dropShadow"/>
<feColorMatrix in="SourceAlpha" type="matrix" values="0 0 0 0 0 0 0 0 0 0 0 0 0 0 0 0 0 0 127 0"/>
<feOffset dy="4"/>
<feGaussianBlur stdDeviation="2"/>
<feColorMatrix type="matrix" values="0 0 0 0 0 0 0 0 0 0 0 0 0 0 0 0 0 0 0.25 0"/>
<feBlend mode="normal" in2="effect1_dropShadow" result="effect2_dropShadow"/>
<feBlend mode="normal" in="SourceGraphic" in2="effect2_dropShadow" result="shape"/>
</filter>
<clipPath id="clip0">
<rect x="4" width="34" height="30" fill="white"/>
</clipPath>
</defs>
</svg>
