<svg width="40" height="36" viewBox="0 0 40 36" fill="none" xmlns="http://www.w3.org/2000/svg">
<g filter="url(#filter0_d)">
<path d="M33.0263 19.5508H32.6282C31.0282 19.5521 29.4283 19.5533 27.8283 19.5521C27.6363 19.5521 27.4405 19.5661 27.2536 19.5317C26.9835 19.4808 26.8197 19.3051 26.835 19.0149C26.8504 18.7298 27.0142 18.5682 27.2971 18.5364C27.4136 18.5224 27.5313 18.5262 27.6491 18.5262C29.4193 18.5275 31.1895 18.53 32.961 18.5236C33.0762 18.5236 33.2362 18.4918 33.3002 18.4142C33.898 17.6823 34.209 16.8627 34.0259 15.8992C33.9773 15.6433 33.8583 15.5619 33.5946 15.5644C31.9089 15.5759 30.2231 15.5708 28.5374 15.5695C27.9998 15.5695 27.7374 15.3951 27.7477 15.0451C27.7579 14.7078 28.0062 14.5487 28.5336 14.5487C30.3255 14.5462 32.1175 14.5475 33.9095 14.5424C34.0336 14.5424 34.1821 14.5411 34.2768 14.4787C35.0102 13.9874 35.1869 12.7668 34.6288 12.0821C34.2141 11.5742 33.6637 11.3808 33.0186 11.382C31.294 11.3865 29.5694 11.3866 27.8448 11.3867C27.1055 11.3867 26.3661 11.3868 25.6267 11.3871C24.6386 11.3871 24.5272 11.2497 24.7704 10.304C25.1403 8.86957 25.4757 7.43005 25.3707 5.93071C25.2722 4.53319 24.8498 3.25913 23.8936 2.20654C23.2345 1.48105 22.4537 0.968121 21.413 1.03303C20.4595 1.09413 19.9743 1.61724 20.0537 2.54765C20.1203 3.32023 20.2367 4.08899 20.3391 4.85775C20.4876 5.98417 20.2444 7.01003 19.5776 7.93789C19.2614 8.37827 18.9568 8.82884 18.6611 9.2845C17.7945 10.6247 16.9869 12.0057 15.913 13.2009C15.8375 13.2836 15.8029 13.43 15.8029 13.5471C15.7965 17.4329 15.7965 21.3187 15.8003 25.2045C15.8003 25.3038 15.8144 25.4374 15.8771 25.4985C16.2279 25.8345 16.6195 26.1196 17.1341 26.1196C21.2518 26.1234 25.3682 26.1247 29.4859 26.1196C30.1054 26.1183 30.6903 25.9669 31.2087 25.6131C31.9229 25.1243 32.2365 24.1404 31.905 23.4086C30.5598 23.4086 29.2056 23.4099 27.8513 23.4086C27.3189 23.4086 26.7851 23.4162 26.2514 23.4022C25.9608 23.3933 25.7547 23.182 25.7586 22.9173C25.7611 22.636 25.9147 22.4604 26.1925 22.4069C26.2949 22.3865 26.4037 22.3865 26.5099 22.3865C28.3236 22.3853 30.1361 22.3878 31.9498 22.3802C32.0842 22.3789 32.2737 22.3433 32.3441 22.2516C32.9495 21.465 33.1607 20.5703 33.0263 19.5508Z" fill="white"/>
<path d="M14.752 13.3676H14.3232L6.32594 13.36C5.64628 13.36 5.10229 13.8703 5.10101 14.5475C5.09333 18.4091 5.09205 22.272 5.09333 26.1336C5.09461 26.6236 5.17908 26.7344 5.65012 26.8909C5.80755 26.9444 5.98291 26.9673 6.15059 26.9711C6.67282 26.9813 7.19505 26.9749 7.71728 26.9762C9.90348 26.9762 12.0884 26.9775 14.2746 26.9762C14.6676 26.9762 14.7687 26.8731 14.77 26.4862C14.7712 26.0713 14.77 25.6563 14.77 25.2414V13.7494C14.77 13.6349 14.7597 13.5203 14.752 13.3676Z" fill="white"/>
<path fill-rule="evenodd" clip-rule="evenodd" d="M27.8448 11.3867C27.1055 11.3867 26.3661 11.3868 25.6267 11.3871Z" fill="white"/>
</g>
<defs>
<filter id="filter0_d" x="0" y="0" width="40" height="36" filterUnits="userSpaceOnUse" color-interpolation-filters="sRGB">
<feFlood flood-opacity="0" result="BackgroundImageFix"/>
<feColorMatrix in="SourceAlpha" type="matrix" values="0 0 0 0 0 0 0 0 0 0 0 0 0 0 0 0 0 0 127 0"/>
<feOffset dy="4"/>
<feGaussianBlur stdDeviation="2"/>
<feColorMatrix type="matrix" values="0 0 0 0 0 0 0 0 0 0 0 0 0 0 0 0 0 0 0.25 0"/>
<feBlend mode="normal" in2="BackgroundImageFix" result="effect1_dropShadow"/>
<feBlend mode="normal" in="SourceGraphic" in2="effect1_dropShadow" result="shape"/>
</filter>
</defs>
</svg>
