<svg xmlns="http://www.w3.org/2000/svg" viewBox="0 0 273.37 245.88"><defs><style>.cls-1{fill:#fff;}</style></defs><title>pagenotfound</title><g id="Слой_2" data-name="Слой 2"><g id="Слой_1-2" data-name="Слой 1"><path class="cls-1" d="M50.35,218.87q-.36,3,.54,0c-.62,1.51-.49,1.32.37-.56,1.16-2,2.24-4,3.52-6A110.22,110.22,0,0,1,62,202.45c.7-.89,1.38-1.8,2.06-2.7q-1.5,2,.47-.42c1.62-1.57,3.17-3.14,4.93-4.56-2.28,1.84,2.13-1.46,2.64-1.81,1.66-1.12,3.33-2.21,5.06-3.2,7.57-4.32,12.66-5.75,22.45-7.91,2.25-.5,4.51-1,6.79-1.33-3.37.5,2.38-.12,3.09-.15a133.33,133.33,0,0,1,13.56.22c.62,0,7.31.71,4.33.31,1.78.24,3.56.58,5.32.95,2.35.49,4.68,1.08,7,1.79,1.15.36,2.29.74,3.43,1.16q3,1.14.87.31a76.39,76.39,0,0,1,11,6.35c1,.67,1.95,1.34,2.92,2-1.29-1.05-1.13-.93.45.38,1.69,1.49,3.36,3,5,4.58a199.21,199.21,0,0,1,17.58,19.71c-1.55-2,1.79,2.4,1.71,2.29,1.27,1.69,2.58,3.36,3.9,5s1.57,1.94.68.9a60.75,60.75,0,0,1,3.23,5.72q-1-2.93-.08-.18a26.07,26.07,0,0,0,2.39,5.3c4.48,8,16.1,11.34,23.94,6.28,8.09-5.21,11.07-15.39,6.28-23.94l.34.86.1.25c-.31.06-1.7-4.14-2.37-5.51s-1.49-2.95-2.32-4.37a68.56,68.56,0,0,0-5.12-7.12l-1.74-2.2c-1.91-2.43,1.15,1.52-.69-.87-5.68-7.4-11.48-14.55-17.82-21.39-12.06-13-26.44-23.54-43.46-29-32.67-10.52-72.83-4.77-100.24,16.06-4.13,3.13-8.17,6.26-11.46,10.3-1.12,1.37-2.19,2.79-3.27,4.2.08-.1-2.75,3.57-1.73,2.28s-.76.91-.78.94c-1.29,1.63-2.57,3.28-3.8,5-6.45,8.75-12.62,18.9-13.25,30-.52,9.15,8.42,17.9,17.5,17.5,9.93-.45,16.94-7.69,17.5-17.5Z"/><path class="cls-1" d="M68.48,23.72c-.43,1.82-.49,2.18-.18,1.09.3-.81.21-.75-.25.17a24.48,24.48,0,0,0-2.25,3.7c-1.59,2.5-3.29,4.92-5,7.31-1.57,2.15-3.19,4.27-4.82,6.38-.43.56-2.43,3.11-1.09,1.41q-1.47,1.88-3,3.72c-7.81,9.62-16.2,18.73-24.41,28-6.07,6.85-7.25,18.1,0,24.75,6.64,6.1,18.26,7.32,24.75,0C61.28,90,70.56,80,79,69.28,83.45,63.67,87.87,58,92,52.21S100.77,40,102.23,33c1.85-8.94-2.61-19.34-12.23-21.53-8.75-2-19.53,2.64-21.52,12.23Z"/><path class="cls-1" d="M162.35,39.37c-1.19,11.55,5.77,20.38,11.68,29.46,4.72,7.25,8.67,14.91,13.11,22.33,9.11,15.21,20.26,30.3,35.88,39.32,7.93,4.58,19.51,2.11,23.94-6.28s2.19-19-6.28-23.94c-1.63-1-3.16-2-4.73-3,3.24,2.18-.45-.48-.94-.92a76.16,76.16,0,0,1-7.26-7.55c-.66-.78-1.3-1.56-1.94-2.36q1.74,2.28-.06-.13c-.89-1.26-1.8-2.5-2.67-3.78-2-2.93-3.89-5.94-5.71-9-3.81-6.35-7.16-13-11.12-19.22-2.3-3.64-4.73-7.21-7.09-10.82-.4-.61-2.67-4.48-2.8-4.44,1.12-.33.35,6.57,1,.36.94-9.14-8.72-17.9-17.5-17.5-10.28.46-16.49,7.71-17.5,17.5Z"/><path class="cls-1" d="M158.5,122.24c10.48-2,20.09-7.08,29.8-11.29,2.72-1.18-2.05.77.64-.26,1.36-.52,2.73-1,4.1-1.52,2.32-.84,4.64-1.65,7-2.47,5-1.76,10-3.52,14.88-5.4,10.15-3.87,20.42-7.89,29.41-14.07a141.77,141.77,0,0,0,12.79-9.65c1.34-1.16,2.59-2.42,3.87-3.64.55-.53,2.59-1.63.69-.69-.95.7-1,.8-.28.31q3.44-2-5.52,1.31c9.11-.65,18-7.58,17.5-17.5-.4-8.92-7.72-18.2-17.5-17.5-7.15.51-12.28,3.17-17.68,7.62-1.48,1.22-2.85,2.55-4.24,3.87-.52.49-1.09,1-1.59,1.47,1.3-1.36,1.62-1.2,0,0a106.67,106.67,0,0,1-12.41,8.33c-2.39,1.32-4.86,2.47-7.35,3.57-.54.24-2.62,1.1-.94.41-1.43.59-2.87,1.15-4.31,1.71-9.69,3.76-19.67,6.77-29.29,10.71-5.53,2.26-10.94,4.8-16.43,7.15,1.7-.73-.11.05-.81.31-1.1.43-2.21.85-3.33,1.24a60.32,60.32,0,0,1-8.27,2.2c-9,1.74-15,13-12.22,21.53,3.1,9.6,11.88,14.09,21.52,12.22Z"/><path class="cls-1" d="M1,12.72C-2.77,25.35,4.84,36.83,14,44.78c8.69,7.52,17.83,14.46,27,21.4l2.83,2.16A18.31,18.31,0,0,1,45.92,70c2.33,1.86,4.64,3.73,6.91,5.67,4.14,3.55,8,7.36,12,11.1s8.09,7.58,11.82,11.68c.93,1,1.82,2.07,2.72,3.1,2,2.3-.15-.53.77,1,1.56,2.59,3.22,5,4.59,7.68,4.14,8.19,16.34,11.18,23.94,6.28,8.37-5.39,10.71-15.19,6.28-23.94-5-9.89-12.62-18.35-20.54-26C86.75,59.17,79,51.83,70.67,45.22,61,37.58,53.3,32.19,45.29,25.53c-2.95-2.45-6-4.88-8.77-7.52-.61-.58-1.18-1.18-1.78-1.77-2.6-2.55-.46.24,0,.22-.31,0-1-2-1.18-2,1.54-.36,1.26,7.28,1.19,7.54C37.33,13.25,31.59,2.56,22.5.49,13.1-1.65,3.76,3.32,1,12.72Z"/></g></g></svg>