<svg width="51" height="51" viewBox="0 0 51 51" fill="none" xmlns="http://www.w3.org/2000/svg">
<path d="M25.5 0C18.0852 0 12.0527 6.03244 12.0527 13.4473C12.0527 20.8621 18.0852 26.8945 25.5 26.8945C32.9148 26.8945 38.9473 20.8621 38.9473 13.4473C38.9473 6.03244 32.9148 0 25.5 0Z" fill="#001A1A"/>
<path d="M42.231 35.6796C38.5494 31.9414 33.6689 29.8828 28.4883 29.8828H22.5117C17.3312 29.8828 12.4506 31.9414 8.76901 35.6796C5.10548 39.3994 3.08789 44.3095 3.08789 49.5059C3.08789 50.331 3.75687 51 4.58203 51H46.418C47.2431 51 47.9121 50.331 47.9121 49.5059C47.9121 44.3095 45.8945 39.3994 42.231 35.6796Z" fill="#001A1A"/>
</svg>
